<svg id="Layer_1" data-name="Layer 1" xmlns="http://www.w3.org/2000/svg" viewBox="0 0 1374.03 1478.4"><defs><style>.cls-1{fill:#f2f2f2;}.cls-2{fill:#f2f2f2;}.cls-3{fill:#f2f2f2;}.cls-4{fill:#f2f2f2;}.cls-5{fill:#f2f2f2;}.cls-6{fill:#f2f2f2;}</style></defs><path class="cls-1" d="M745.63,330.88c-41,6-82.1,11.11-120.85,27.77-104.88,45.1-127.78,150.6-50,234.65,47.33,51.17,108.89,80.54,171,108.29,151.58,67.65,304.82,131.83,447.93,216.94,73.23,43.55,142.49,92.29,202.38,153.64,96,98.27,126.09,213.45,81.92,343.29-33.52,98.55-76.68,193.4-156.89,265.08-48.38,43.23-102.87,68.61-170.89,55,3.1-25.4,26.28-25.62,41-34.06,164.13-93.83,237.58-270.45,192.93-454.23-12.22-50.33-45-76.59-83.37-101-199.36-126.94-408.88-234.49-626.22-327C601.5,788.05,532.48,749.81,468,702.89c-90.4-65.8-127.1-153.65-104.91-262,20.55-100.32,97.51-143.93,188.62-165.17,132.55-30.92,259.55-13.46,382.95,50.55-16.06,10.24-29.09,6.55-42,4.57A574.72,574.72,0,0,0,745.63,330.88Z" transform="translate(-312.98 -260.8)"/><path class="cls-2" d="M1045.26,305c243.59-103,507,6.65,604.26,237.32,83.32,197.61,17.86,493.51-99.12,672.87,10-89,19.3-168,27.62-247,10.91-103.6,14.2-207.79-6.75-310-36.58-178.5-165-265.67-326.89-316.62C1183.09,322.17,1119.5,315.18,1045.26,305Z" transform="translate(-312.98 -260.8)"/><path class="cls-3" d="M314.57,670.35c33.66,32.6,58.7,60.76,87.8,83.81,23.82,18.86,20.74,42.62,21.51,66.47,5.47,170.08,22.29,338.53,75.8,501.17,54.64,166.1,149.16,302,303.79,392-76.11-3.14-134.84-41.7-187.7-90.45C518,1533.22,457.79,1418.2,403.91,1299,314.18,1100.51,308.88,890.38,314.57,670.35Z" transform="translate(-312.98 -260.8)"/><path class="cls-4" d="M1038.74,1165.66c72.94,46.67,87,102.76,82.32,166.11-5,68.07-27.41,132.66-42.33,198.75-15,66.44-26.32,132.44,45.58,196.72-90.32-28-125.24-76.74-122.92-151.43,2.07-66.74,22.59-130.06,42.23-192.76C1065,1314.77,1078.07,1248.11,1038.74,1165.66Z" transform="translate(-312.98 -260.8)"/><path class="cls-5" d="M875.83,1696.67c-.94-100-47.26-186.1-77.47-276.54-13.09-39.19-28.71-77.69-31.39-119.41-8.57-133.5,81.11-199.54,212-154.16-3.64,4.36-6.11,10.37-10,11.47-119.66,34-158.73,94.73-134.06,218.06,14.71,73.54,36.51,145.65,53.08,218.86C895.74,1629.17,899.2,1664.54,875.83,1696.67Z" transform="translate(-312.98 -260.8)"/><path class="cls-6" d="M745.63,330.88c49-16.84,98-16.62,147-.08Z" transform="translate(-312.98 -260.8)"/></svg>